<?xml version="1.0" encoding="UTF-8"?>
<!DOCTYPE svg  PUBLIC '-//W3C//DTD SVG 1.1//EN'  'http://www.w3.org/Graphics/SVG/1.1/DTD/svg11.dtd'>
<svg enable-background="new 0 0 509.8151 512" version="1.1" viewBox="0 0 509.8151 512" xml:space="preserve" xmlns="http://www.w3.org/2000/svg">
	<linearGradient id="a" x1="254.91" x2="254.91" y1="-7.6816e-9" y2="512" gradientUnits="userSpaceOnUse">
		<stop stop-color="#7564FF" offset="0"/>
		<stop stop-color="#9CE0FF" offset="1"/>
	</linearGradient>
	<path d="m426.02 512h-342.23c-46.087 0-83.794-37.707-83.794-83.794v-344.41c0-46.087 37.707-83.794 83.794-83.794h342.23c46.087 0 83.794 37.707 83.794 83.794v344.41c0 46.087-37.707 83.794-83.794 83.794z" fill="url(#a)"/>
	<path d="m386.98 244.06h-0.427c1.0198-5.7538 1.5816-11.666 1.5816-17.712 0-55.717-45.167-100.88-100.88-100.88-47.268 0-86.928 32.513-97.875 76.391-8.9497-8.3622-21.189-13.25-34.598-12.37-23.093 1.515-41.727 20.312-43.037 43.417-0.2339 4.1261 0.0748 8.1424 0.86 11.985-35.985 5.2468-63.499 37.564-60.826 75.494 2.6396 37.455 34.497 66.151 72.045 66.151h262.28c37.612 0 69.425-28.843 71.954-66.37 2.7875-41.356-30.281-76.101-71.071-76.101z" fill="none" stroke="#fff" stroke-miterlimit="10" stroke-width="18.483"/>
</svg>
