<svg width="364.925px" height="121.39999999999999px" xmlns="http://www.w3.org/2000/svg" viewBox="67.5375 14.300000000000004 364.925 121.39999999999999" style="background: rgba(0, 0, 0, 0);" preserveAspectRatio="xMidYMid"><defs><linearGradient id="editing-outline-gradient" x1="-0.41354545764260087" x2="1.4135454576426008" y1="0.09326335692419985" y2="0.9067366430758002"><stop offset="0" stop-color="#ee4208"></stop><stop offset="1" stop-color="#4139ff"></stop></linearGradient><filter id="editing-outline" x="-100%" y="-100%" width="300%" height="300%"><feMorphology in="SourceGraphic" operator="dilate" radius="1" result="outline"></feMorphology><feComposite operator="out" in="outline" in2="SourceAlpha"></feComposite></filter></defs><g filter="url(#editing-outline)"><g transform="translate(123.824986577034, 104.47000122070312)"><path d="M26.05-29.57L26.05-29.57L26.05-29.57Q27.01-31.49 27.01-33.28L27.01-33.28L27.01-33.28Q27.01-35.07 26.82-36.06L26.82-36.06L26.82-36.06Q26.62-37.06 26.18-37.82L26.18-37.82L26.18-37.82Q25.22-39.49 23.30-39.49L23.30-39.49L23.30-39.49Q20.93-39.49 19.01-37.76L19.01-37.76L19.01-37.76Q16.96-35.97 16.96-33.15L16.96-33.15L16.96-33.15Q16.96-31.36 18.21-29.98L18.21-29.98L18.21-29.98Q19.46-28.61 21.38-27.33L21.38-27.33L21.38-27.33Q23.30-26.05 25.47-24.77L25.47-24.77L25.47-24.77Q27.65-23.49 29.57-21.95L29.57-21.95L29.57-21.95Q33.98-18.43 33.98-13.70L33.98-13.70L33.98-13.70Q33.98-10.50 32.29-7.78L32.29-7.78L32.29-7.78Q30.59-5.06 27.78-3.07L27.78-3.07L27.78-3.07Q21.63 1.28 13.50 1.28L13.50 1.28L13.50 1.28Q6.91 1.28 3.52-0.86L3.52-0.86L3.52-0.86Q0.13-3.01 0.13-6.27L0.13-6.27L0.13-6.27Q0.13-12.10 4.67-13.57L4.67-13.57L4.67-13.57Q5.95-14.02 7.90-14.02L7.90-14.02L7.90-14.02Q9.86-14.02 12.10-13.18L12.10-13.18L12.10-13.18Q11.07-10.56 11.07-8.19L11.07-8.19L11.07-8.19Q11.07-3.07 14.72-3.07L14.72-3.07L14.72-3.07Q17.09-3.07 19.04-4.80L19.04-4.80L19.04-4.80Q20.99-6.53 20.99-8.48L20.99-8.48L20.99-8.48Q20.99-10.43 19.74-11.84L19.74-11.84L19.74-11.84Q18.50-13.25 16.64-14.37L16.64-14.37L16.64-14.37Q14.78-15.49 12.64-16.58L12.64-16.58L12.64-16.58Q10.50-17.66 8.64-19.20L8.64-19.20L8.64-19.20Q4.29-22.72 4.29-28.35L4.29-28.35L4.29-28.35Q4.29-32 6.08-34.85L6.08-34.85L6.08-34.85Q7.87-37.70 10.75-39.62L10.75-39.62L10.75-39.62Q16.51-43.52 23.58-43.52L23.58-43.52L23.58-43.52Q30.66-43.52 34.08-41.41L34.08-41.41L34.08-41.41Q37.50-39.30 37.50-35.71L37.50-35.71L37.50-35.71Q37.50-32.58 35.07-30.59L35.07-30.59L35.07-30.59Q32.96-28.93 30.40-28.93L30.40-28.93L30.40-28.93Q27.84-28.93 26.05-29.57ZM55.36-30.34L55.36-30.34L55.36-30.34Q58.82-33.92 66.11-33.92L66.11-33.92L66.11-33.92Q70.14-33.92 72.35-31.78L72.35-31.78L72.35-31.78Q74.56-29.63 74.56-25.70L74.56-25.70L74.56-25.70Q74.56-21.76 72.35-18.98L72.35-18.98L72.35-18.98Q70.14-16.19 66.05-15.04L66.05-15.04L66.05-15.04Q66.37-13.76 66.82-12.42L66.82-12.42L67.71-9.86L67.71-9.86Q68.93-6.59 69.89-5.44L69.89-5.44L69.89-5.44Q70.85-4.29 72.13-3.90L72.13-3.90L72.13-3.90Q71.42-1.28 68.86 0.13L68.86 0.13L68.86 0.13Q66.82 1.28 64 1.28L64 1.28L64 1.28Q55.74 1.28 54.66-11.46L54.66-11.46L54.66-11.46Q54.46-13.25 54.46-15.04L54.46-15.04L54.46-15.04Q57.66-15.94 59.90-18.94L59.90-18.94L59.90-18.94Q62.14-21.95 62.14-25.47L62.14-25.47L62.14-25.47Q62.14-28.99 59.65-28.99L59.65-28.99L59.65-28.99Q57.86-28.99 56.45-27.01L56.45-27.01L56.45-27.01Q55.04-25.02 54.40-21.63L54.40-21.63L50.18 0L37.25 1.28L46.21-44.80L59.07-46.08L57.60-38.46L57.60-38.46Q56.64-33.09 55.36-30.34ZM97.86-7.23L97.86-7.23L97.86-7.23Q94.53-3.78 88.45-3.78L88.45-3.78L88.45-3.78Q80.83-3.78 79.23-9.34L79.23-9.34L79.23-9.34Q78.72-11.01 78.72-12.86L78.72-12.86L78.72-12.86Q78.72-14.72 79.10-16.64L79.10-16.64L82.11-32.64L95.10-33.92L91.58-15.30L91.58-15.30Q91.46-14.46 91.26-13.57L91.26-13.57L91.26-13.57Q91.07-12.67 91.07-11.74L91.07-11.74L91.07-11.74Q91.07-10.82 91.39-10.21L91.39-10.21L91.39-10.21Q91.71-9.60 92.16-9.22L92.16-9.22L92.16-9.22Q92.93-8.70 94.30-8.70L94.30-8.70L94.30-8.70Q95.68-8.70 96.86-10.37L96.86-10.37L96.86-10.37Q98.05-12.03 98.62-14.91L98.62-14.91L102.14-32.64L114.75-33.92L109.95-8.77L109.95-8.77Q107.58 3.52 102.72 8.38L102.72 8.38L102.72 8.38Q100.22 10.88 96.99 11.87L96.99 11.87L96.99 11.87Q93.76 12.86 89.60 12.86L89.60 12.86L89.60 12.86Q82.88 12.86 79.04 10.75L79.04 10.75L79.04 10.75Q75.20 8.64 75.20 5.12L75.20 5.12L75.20 5.12Q75.20 2.50 77.18 0.99L77.18 0.99L77.18 0.99Q79.17-0.51 82.24-0.51L82.24-0.51L82.24-0.51Q84.93-0.51 86.98 0.64L86.98 0.64L86.98 0.64Q88.19 1.34 88.77 2.24L88.77 2.24L88.77 2.24Q87.30 3.52 87.30 5.63L87.30 5.63L87.30 5.63Q87.30 8.45 89.86 8.45L89.86 8.45L89.86 8.45Q94.08 8.45 96.51-1.28L96.51-1.28L96.51-1.28Q97.22-4.16 97.86-7.23ZM116.42-0.32L116.42-0.32L124.48-42.24L124.48-42.24Q132.03-42.88 136.90-42.88L136.90-42.88L136.90-42.88Q141.76-42.88 144.90-42.46L144.90-42.46L144.90-42.46Q148.03-42.05 150.14-40.96L150.14-40.96L150.14-40.96Q154.37-38.91 154.37-33.28L154.37-33.28L154.37-33.28Q154.37-30.02 151.55-27.26L151.55-27.26L151.55-27.26Q148.93-24.77 146.05-24.19L146.05-24.19L146.05-24.19Q149.12-23.68 151.30-21.38L151.30-21.38L151.30-21.38Q153.60-18.94 153.60-15.17L153.60-15.17L153.60-15.17Q153.60-7.87 148.16-3.62L148.16-3.62L148.16-3.62Q142.72 0.64 132.03 0.64L132.03 0.64L132.03 0.64Q124.67 0.64 116.42-0.32ZM133.82-20.61L130.62-4.03L130.62-4.03Q131.20-3.97 131.33-3.97L131.33-3.97L131.90-3.97L131.90-3.97Q137.15-3.97 139.39-7.42L139.39-7.42L139.39-7.42Q141.06-10.11 141.06-15.04L141.06-15.04L141.06-15.04Q141.06-17.66 139.36-19.07L139.36-19.07L139.36-19.07Q137.66-20.48 133.82-20.61L133.82-20.61ZM143.55-33.22L143.55-33.22L143.55-33.22Q143.55-38.53 138.43-38.53L138.43-38.53L137.86-38.53L137.86-38.53Q137.60-38.53 137.22-38.46L137.22-38.46L134.66-24.96L135.30-24.96L135.30-24.96Q143.55-25.15 143.55-33.22ZM173.12-3.52L173.12-3.52L173.12-3.52Q171.14 1.28 164.80 1.28L164.80 1.28L164.80 1.28Q161.60 1.28 159.55-0.96L159.55-0.96L159.55-0.96Q157.89-2.82 157.89-4.93L157.89-4.93L157.89-4.93Q157.89-9.73 160.13-20.22L160.13-20.22L164.80-44.80L177.79-46.08L171.58-13.70L171.58-13.70Q170.50-8.96 170.50-7.30L170.50-7.30L170.50-7.30Q170.50-3.65 173.12-3.52ZM192.51 1.28L192.51 1.28L192.51 1.28Q178.43 1.28 178.43-11.97L178.43-11.97L178.43-11.97Q178.43-21.38 183.62-27.46L183.62-27.46L183.62-27.46Q189.12-33.92 198.66-33.92L198.66-33.92L198.66-33.92Q205.57-33.92 209.09-30.72L209.09-30.72L209.09-30.72Q212.61-27.52 212.61-20.80L212.61-20.80L212.61-20.80Q212.61-10.56 207.10-4.61L207.10-4.61L207.10-4.61Q201.73 1.28 192.51 1.28ZM194.18-26.56L194.18-26.56L194.18-26.56Q193.41-24.83 192.80-22.24L192.80-22.24L192.80-22.24Q192.19-19.65 191.42-15.55L191.42-15.55L191.42-15.55Q190.66-11.46 190.66-6.40L190.66-6.40L190.66-6.40Q190.66-4.74 191.20-3.65L191.20-3.65L191.20-3.65Q191.74-2.56 193.22-2.56L193.22-2.56L193.22-2.56Q194.69-2.56 195.62-3.26L195.62-3.26L195.62-3.26Q196.54-3.97 197.25-5.63L197.25-5.63L197.25-5.63Q198.53-8.58 199.55-14.05L199.55-14.05L199.55-14.05Q200.58-19.52 200.67-21.89L200.67-21.89L200.67-21.89Q200.77-24.26 200.77-26.02L200.77-26.02L200.77-26.02Q200.77-27.78 200.26-28.93L200.26-28.93L200.26-28.93Q199.74-30.08 198.30-30.08L198.30-30.08L198.30-30.08Q196.86-30.08 195.90-29.18L195.90-29.18L195.90-29.18Q194.94-28.29 194.18-26.56ZM220.93-26.75L220.93-26.75L220.93-26.75Q223.10-29.82 226.40-31.87L226.40-31.87L226.40-31.87Q229.70-33.92 233.73-33.92L233.73-33.92L233.73-33.92Q237.76-33.92 239.68-32.64L239.68-32.64L252.22-33.92L247.87-9.34L247.87-9.34Q245.63 3.20 240.90 8.13L240.90 8.13L240.90 8.13Q236.35 12.80 227.52 12.80L227.52 12.80L227.52 12.80Q220.80 12.80 216.96 10.69L216.96 10.69L216.96 10.69Q213.12 8.58 213.12 5.06L213.12 5.06L213.12 5.06Q213.12 2.43 215.10 0.93L215.10 0.93L215.10 0.93Q217.09-0.58 220.16-0.58L220.16-0.58L220.16-0.58Q222.85-0.58 224.90 0.64L224.90 0.64L224.90 0.64Q226.11 1.28 226.69 2.18L226.69 2.18L226.69 2.18Q225.22 3.46 225.22 5.57L225.22 5.57L225.22 5.57Q225.22 8.32 227.78 8.32L227.78 8.32L227.78 8.32Q232.06 8.32 234.50-1.79L234.50-1.79L234.50-1.79Q235.20-4.54 235.78-7.30L235.78-7.30L235.78-7.30Q232.90-3.78 226.37-3.78L226.37-3.78L226.37-3.78Q221.82-3.78 219.20-5.95L219.20-5.95L219.20-5.95Q216.58-8.13 216.58-13.25L216.58-13.25L216.58-13.25Q216.58-16.45 217.66-20.06L217.66-20.06L217.66-20.06Q218.75-23.68 220.93-26.75ZM229.25-13.06L229.25-13.06L229.25-13.06Q229.25-8.70 231.49-8.70L231.49-8.70L231.49-8.70Q233.02-8.70 234.50-10.37L234.50-10.37L234.50-10.37Q235.65-11.71 236.10-13.70L236.10-13.70L239.36-30.14L239.36-30.14Q239.04-30.21 238.72-30.34L238.72-30.34L238.72-30.34Q238.08-30.59 237.25-30.59L237.25-30.59L237.25-30.59Q233.34-30.59 231.04-24.19L231.04-24.19L231.04-24.19Q229.25-19.20 229.25-13.06Z" fill="url(#editing-outline-gradient)"></path></g></g><style>text {
  font-size: 64px;
  font-family: Arial Black;
  dominant-baseline: central;
  text-anchor: middle;
}</style></svg>