<?xml version="1.0" standalone="no"?>
<!DOCTYPE svg PUBLIC "-//W3C//DTD SVG 20010904//EN"
 "http://www.w3.org/TR/2001/REC-SVG-20010904/DTD/svg10.dtd">
<svg version="1.0" xmlns="http://www.w3.org/2000/svg"
 width="1424.000000pt" height="1424.000000pt" viewBox="0 0 1424.000000 1424.000000"
 preserveAspectRatio="xMidYMid meet">
<metadata>
Created by potrace 1.14, written by Peter Selinger 2001-2017
</metadata>
<g transform="translate(0.000000,1424.000000) scale(0.100000,-0.100000)"
fill="#000000" stroke="none">
<path d="M6848 8765 c-3 -3 -72 -12 -163 -20 -62 -5 -75 -7 -254 -25 -58 -6
-125 -13 -150 -16 -94 -8 -167 -15 -201 -19 -19 -2 -66 -7 -105 -10 -74 -7
-78 -9 -81 -28 -1 -7 -19 -93 -38 -192 -44 -215 -49 -245 -50 -267 0 -21 -26
-24 -26 -4 0 26 -97 133 -162 179 -72 51 -214 119 -278 132 -6 1 -123 28 -130
30 -3 1 -30 5 -60 9 -30 5 -64 10 -75 12 -91 17 -977 26 -1155 11 -108 -9
-227 -30 -333 -59 -45 -12 -85 -21 -89 -20 -5 1 -8 -2 -8 -7 0 -5 -15 -12 -32
-16 -18 -4 -35 -9 -38 -10 -65 -25 -263 -124 -294 -148 -6 -4 -41 -27 -77 -51
-84 -55 -95 -64 -189 -157 -113 -111 -258 -331 -263 -401 -1 -10 -4 -18 -8
-18 -4 0 -10 -17 -14 -37 -17 -92 -23 -118 -25 -118 -7 0 -17 -828 -10 -855 0
-3 3 -32 5 -65 2 -33 6 -69 9 -80 2 -11 9 -42 16 -70 6 -27 18 -65 26 -85 33
-75 66 -140 74 -145 12 -7 2 -32 -13 -32 -30 -2 -82 -15 -116 -30 -20 -9 -38
-17 -41 -18 -64 -17 -174 -119 -218 -203 -35 -68 -66 -158 -58 -171 4 -5 2
-12 -2 -15 -13 -8 -15 -68 -16 -491 -2 -390 1 -426 40 -512 27 -60 139 -193
162 -193 4 0 14 -9 22 -20 8 -11 20 -20 26 -20 6 0 22 -8 35 -18 25 -19 158
-80 187 -86 9 -1 24 -6 32 -9 53 -22 176 -43 355 -63 139 -15 1052 -7 1144 11
9 1 38 6 65 9 27 4 52 9 55 11 3 1 24 6 45 9 21 4 78 18 125 32 47 14 92 26
99 27 6 0 12 4 12 9 0 5 4 7 9 3 5 -3 12 -1 16 5 4 6 10 8 14 5 10 -5 269 122
324 159 21 14 42 26 47 26 6 0 10 5 10 10 0 6 7 10 15 10 8 0 15 4 15 8 0 4
12 15 28 24 15 9 39 28 54 42 18 17 29 22 34 15 10 -16 11 -89 1 -89 -4 0 -3
-8 2 -19 6 -10 8 -20 6 -23 -5 -5 -6 -37 -5 -180 1 -104 2 -108 23 -109 82 -3
677 2 697 5 14 3 57 8 95 11 119 10 158 14 205 20 25 3 72 8 105 10 33 2 60 5
60 6 0 1 14 3 30 4 52 4 169 15 205 20 32 4 137 13 219 20 37 2 51 18 51 54
l0 25 28 -27 c15 -15 33 -27 40 -27 7 0 12 -4 12 -9 0 -15 144 -80 215 -97 59
-14 134 -16 480 -16 226 0 426 2 445 6 51 8 79 14 100 21 10 3 21 2 24 -3 3
-5 5 -65 5 -133 0 -300 0 -299 59 -416 73 -146 288 -284 532 -341 25 -6 59
-14 75 -18 52 -12 59 -14 110 -19 28 -3 61 -7 75 -10 78 -15 1002 -24 1120
-11 25 3 70 8 101 11 31 3 67 8 80 10 13 3 41 7 62 10 41 5 210 50 242 64 115
52 151 71 222 118 152 100 308 276 399 448 15 28 31 52 35 53 5 2 7 7 4 12 -3
5 2 16 11 24 8 9 13 16 10 16 -3 0 5 21 18 48 32 63 69 153 95 232 13 36 25
72 28 80 4 8 7 18 8 23 2 4 4 10 5 15 1 4 2 10 1 15 0 4 2 7 7 7 4 0 8 11 8
25 1 14 5 33 9 43 5 9 10 26 12 37 2 11 7 31 13 45 5 14 19 66 30 115 11 50
26 110 32 135 6 25 12 55 13 67 2 12 6 36 11 55 4 18 8 42 10 53 1 11 3 21 4
23 3 3 5 10 15 67 10 63 12 72 21 115 4 19 8 44 10 55 1 11 7 45 13 75 16 80
20 101 27 140 4 19 9 39 12 44 2 4 6 25 8 45 2 20 6 47 9 61 9 38 26 122 30
150 2 14 6 36 9 50 9 42 15 74 21 105 3 17 7 41 10 55 11 54 18 96 19 118 0
12 3 22 6 22 4 0 7 6 7 13 1 23 20 132 23 132 1 0 3 15 5 33 2 18 10 63 19
100 8 37 18 83 21 102 3 19 8 49 12 65 3 17 7 39 9 50 2 11 5 30 8 41 5 23 16
87 21 119 2 11 4 20 5 20 3 0 10 39 13 76 2 20 8 42 12 49 8 12 14 658 7 690
-3 13 -48 15 -340 14 -185 -1 -359 -4 -387 -7 -48 -7 -105 -12 -210 -22 -27
-3 -68 -7 -90 -9 -117 -13 -225 -24 -305 -31 -25 -2 -67 -6 -95 -10 -27 -4
-71 -8 -97 -10 l-47 -3 -3 46 -3 47 -330 -1 c-298 -1 -408 -5 -515 -19 -19 -3
-63 -7 -96 -10 -34 -2 -74 -6 -90 -9 -16 -2 -65 -8 -109 -11 -146 -13 -245
-22 -310 -30 -37 -4 -134 -14 -198 -19 -35 -3 -35 -4 -42 -55 -3 -24 -7 -46
-9 -50 -2 -3 -7 -24 -10 -45 -4 -22 -8 -41 -10 -43 -2 -2 -14 14 -28 34 -25
38 -113 133 -122 133 -3 0 -21 11 -41 25 -34 22 -123 60 -170 72 -98 24 -184
28 -526 28 -380 0 -341 -10 -324 80 4 22 9 47 10 55 2 8 11 51 20 95 14 65 17
138 17 400 -1 176 -1 326 -1 333 -1 11 -71 13 -361 11 -197 -1 -360 -3 -362
-4z m397 -327 c4 -3 2 -23 -4 -44 -5 -22 -12 -57 -16 -80 -3 -22 -10 -55 -15
-72 -5 -18 -7 -32 -5 -32 3 0 0 -11 -5 -24 -5 -14 -11 -42 -14 -63 -3 -21 -8
-49 -11 -63 -3 -14 -7 -38 -9 -55 -2 -16 -6 -37 -10 -45 -3 -8 -7 -28 -10 -45
-2 -16 -5 -30 -6 -30 -1 0 -3 -16 -6 -35 -5 -39 -12 -75 -14 -75 -1 0 -3 -13
-5 -30 -2 -16 -7 -41 -11 -55 -4 -14 -8 -34 -9 -45 -6 -60 -107 -398 -128
-423 -17 -22 -1 -23 24 -1 13 11 33 28 44 37 91 78 307 167 450 186 22 3 63 9
90 13 96 15 394 9 465 -10 113 -30 207 -83 282 -159 37 -38 68 -76 68 -83 0
-8 4 -15 10 -15 5 0 13 -12 16 -27 4 -16 11 -31 16 -34 8 -5 30 -76 45 -144 8
-38 8 -322 0 -355 -4 -14 -13 -47 -20 -75 -8 -27 -16 -57 -18 -65 -2 -8 -6
-17 -9 -20 -3 -3 -18 -32 -33 -64 -66 -138 -203 -276 -352 -354 -55 -29 -184
-82 -200 -82 -28 -1 -34 -16 -24 -55 5 -22 13 -47 16 -55 4 -8 8 -19 9 -25 1
-5 3 -13 4 -17 1 -5 3 -11 4 -15 1 -5 5 -14 9 -20 5 -7 5 -17 2 -23 -3 -5 -1
-10 4 -10 6 0 10 -3 10 -7 -4 -19 15 -73 24 -73 6 0 8 -3 5 -6 -8 -7 29 -114
84 -241 38 -90 50 -115 90 -184 21 -37 110 -129 125 -129 7 0 13 -4 13 -8 0
-4 16 -14 35 -21 45 -16 45 -31 0 -118 -37 -71 -135 -175 -191 -203 -16 -8
-36 -19 -44 -26 -25 -19 -148 -59 -210 -68 -9 -1 -20 -5 -25 -8 -11 -6 -261
-3 -285 4 -124 35 -209 78 -282 143 -96 87 -184 239 -236 410 -36 117 -65 252
-57 266 4 5 2 9 -3 9 -5 0 -9 16 -10 35 -1 19 -3 51 -4 70 -1 19 -4 35 -7 35
-3 0 -6 19 -7 43 -1 23 -4 93 -7 156 -7 127 -4 137 49 147 19 3 34 10 34 15 0
5 3 8 8 7 13 -4 52 13 52 23 0 5 7 9 14 9 30 0 175 121 242 203 87 105 169
266 188 369 3 13 5 23 6 23 6 0 13 95 13 170 0 189 -63 280 -192 277 -66 -1
-75 -3 -121 -25 -72 -35 -153 -132 -207 -247 -24 -52 -69 -182 -77 -225 -9
-41 -15 -71 -21 -97 -3 -13 -8 -35 -10 -50 -2 -14 -11 -59 -19 -100 -8 -40
-17 -85 -20 -101 -3 -15 -7 -35 -10 -45 -3 -9 -7 -33 -10 -52 -5 -33 -18 -98
-29 -145 -6 -24 -19 -104 -22 -125 -1 -8 -4 -24 -8 -35 -3 -11 -8 -36 -11 -55
-3 -19 -8 -46 -11 -60 -3 -14 -7 -36 -10 -50 -2 -14 -9 -50 -15 -80 -7 -30
-14 -68 -17 -85 -5 -33 -19 -98 -26 -131 -3 -12 -8 -37 -11 -55 -3 -19 -8 -43
-10 -54 -17 -83 -36 -175 -40 -200 -3 -16 -8 -41 -11 -55 -6 -28 -11 -58 -20
-110 -3 -19 -10 -49 -14 -67 -5 -17 -7 -34 -4 -37 16 -15 -24 -34 -85 -40 -37
-4 -83 -9 -102 -11 -74 -9 -158 -17 -225 -22 -117 -9 -138 -11 -185 -18 -25
-4 -70 -8 -100 -10 -30 -2 -55 -4 -55 -5 0 -1 -18 -3 -40 -5 -22 -2 -65 -6
-95 -9 -30 -4 -78 -9 -106 -11 l-52 -5 10 43 c5 23 11 57 14 76 2 19 11 63 19
98 8 35 14 67 13 71 -1 4 2 18 5 32 4 14 9 36 11 50 3 14 9 48 15 75 14 69 17
85 25 125 7 38 13 71 22 110 2 14 7 40 10 59 2 19 9 52 14 75 5 22 11 55 14
71 3 17 8 41 11 55 3 14 8 39 11 55 3 17 9 49 15 73 5 23 12 59 15 78 6 38 9
54 21 114 10 47 10 50 13 53 1 1 3 18 5 37 2 19 4 35 5 35 1 0 3 11 6 24 2 14
23 117 45 230 23 113 43 217 45 231 3 14 13 68 24 120 27 139 34 174 35 185 1
6 4 24 8 40 4 17 9 46 12 65 4 19 10 53 15 75 6 22 12 54 14 70 2 17 5 30 6
30 2 0 4 9 5 21 2 16 14 82 20 104 2 8 16 99 16 105 0 2 5 19 10 37 5 18 12
53 15 78 3 25 8 48 10 51 3 5 7 25 19 102 3 17 8 39 11 48 2 10 7 30 9 45 2
16 9 52 15 79 6 28 13 61 15 75 9 47 14 75 18 95 10 46 20 101 23 120 5 33 15
85 34 174 11 47 17 88 14 93 -3 4 1 8 8 9 7 0 22 2 33 4 11 2 49 7 85 10 36 3
79 8 95 10 17 2 62 7 100 10 39 3 88 8 110 10 22 2 65 7 95 10 30 3 78 7 105
11 28 3 75 7 105 9 30 2 55 5 55 6 0 2 27 4 128 12 38 3 71 7 73 10 7 6 31 3
39 -5z m-2845 -198 c0 8 6 8 20 0 13 -7 20 -7 20 -1 0 7 9 7 26 1 16 -7 23 -7
19 0 -4 6 2 7 17 2 13 -4 53 -7 90 -7 38 0 68 -2 68 -5 0 -3 24 -6 53 -6 48
-1 101 -8 153 -19 12 -3 39 -7 60 -11 21 -3 46 -10 54 -14 8 -4 17 -8 20 -8
33 1 235 -81 250 -101 3 -4 21 -17 40 -28 30 -19 72 -58 134 -124 14 -16 85
-154 84 -164 0 -3 3 -31 8 -63 4 -31 7 -59 7 -62 -1 -3 -4 -34 -7 -70 -7 -82
-26 -146 -62 -207 -31 -55 -157 -183 -179 -183 -8 0 -15 -4 -15 -10 0 -5 -11
-12 -25 -16 -14 -3 -25 -10 -25 -14 0 -4 -15 -11 -32 -15 -18 -4 -37 -9 -43
-11 -90 -28 -109 -31 -220 -29 -68 1 -153 10 -195 19 -41 10 -80 18 -87 20
-21 4 -24 12 -13 42 6 16 11 30 11 32 -1 1 6 16 14 32 9 17 13 30 11 30 -3 0
-2 10 3 23 26 68 29 262 6 377 -23 115 -102 222 -185 252 -46 16 -145 17 -211
3 -79 -17 -189 -84 -262 -159 -32 -33 -89 -117 -93 -136 0 -3 -3 -12 -6 -20
-44 -115 -41 -246 6 -341 26 -51 34 -62 76 -107 66 -70 273 -232 298 -232 6 0
12 -4 14 -8 2 -4 48 -36 103 -70 55 -33 105 -65 110 -69 6 -4 26 -17 45 -27
132 -73 339 -226 433 -320 66 -68 148 -179 173 -236 3 -8 12 -28 19 -45 8 -16
11 -33 9 -37 -3 -4 -1 -8 4 -8 8 0 13 -17 29 -105 2 -11 5 -42 7 -70 3 -27 5
-52 6 -55 1 -3 1 -9 0 -15 -1 -5 -4 -39 -6 -75 -2 -36 -11 -92 -19 -125 -15
-59 -23 -88 -24 -92 -1 -2 -1 -5 -1 -8 1 -13 -94 -188 -121 -222 -16 -21 -39
-51 -52 -67 -35 -46 -157 -168 -207 -206 -25 -19 -49 -38 -55 -43 -5 -4 -39
-26 -75 -49 -36 -22 -77 -49 -92 -59 -14 -10 -32 -20 -40 -21 -7 -2 -15 -6
-18 -9 -3 -3 -52 -26 -110 -52 -140 -62 -285 -106 -430 -131 -14 -3 -25 -5
-25 -6 0 -2 -18 -5 -110 -16 -86 -10 -450 -11 -525 -1 -30 4 -73 10 -95 12
-46 6 -245 54 -260 63 -5 4 -14 7 -20 8 -32 5 -170 83 -225 127 -179 145 -230
301 -185 562 12 73 55 180 88 222 53 66 150 146 173 142 4 0 10 4 13 9 9 14
128 52 185 59 154 18 292 5 432 -42 l51 -17 -23 -68 c-68 -195 -77 -435 -22
-569 6 -14 12 -29 12 -33 1 -4 9 -17 19 -28 9 -11 17 -24 17 -28 0 -13 103
-71 135 -76 17 -2 32 -5 35 -6 10 -4 55 -2 99 4 71 10 122 28 186 65 65 38
185 146 185 168 0 7 4 13 8 13 16 0 54 105 59 166 6 70 -14 151 -54 224 -48
87 -219 230 -373 311 -25 13 -47 26 -50 29 -5 6 -30 19 -195 105 -159 83 -329
208 -425 311 -103 110 -187 269 -214 404 -3 14 -8 36 -11 50 -4 14 -8 79 -10
145 -3 117 9 222 36 316 7 24 13 46 14 49 0 3 6 14 12 25 6 11 12 25 13 30 5
32 95 187 112 193 4 2 8 10 8 18 0 20 236 254 255 254 9 0 13 5 10 10 -3 6 -1
10 5 10 5 0 32 15 58 33 86 60 167 104 302 165 100 45 299 103 400 117 25 3
59 9 75 11 17 3 65 7 108 9 43 2 81 5 84 9 3 3 14 1 24 -5 13 -7 19 -6 19 1z
m5736 -789 c-6 -19 -20 -90 -30 -146 -2 -16 -28 -149 -56 -295 -28 -146 -52
-274 -54 -285 -3 -18 -21 -117 -31 -170 -2 -11 -4 -22 -5 -25 -1 -3 -3 -9 -4
-15 -2 -15 -18 -97 -22 -120 -3 -11 -7 -35 -10 -54 -3 -18 -8 -43 -10 -55 -3
-11 -7 -39 -10 -60 -3 -22 -8 -44 -11 -49 -3 -4 -7 -23 -10 -40 -2 -18 -13
-77 -23 -132 -10 -55 -21 -113 -24 -130 -3 -16 -9 -50 -14 -75 -12 -64 -6
-170 11 -211 36 -86 106 -132 210 -138 121 -7 226 80 301 251 22 48 55 148 57
170 0 4 5 22 10 40 5 18 12 49 15 68 3 19 9 51 14 70 5 19 11 53 15 75 3 22
12 68 20 103 8 34 17 77 20 95 3 18 10 55 16 82 6 28 12 61 14 75 2 14 4 25 5
25 2 0 7 24 15 70 7 46 12 70 20 105 3 14 7 34 9 45 2 11 11 56 20 100 8 44
18 91 21 105 3 14 7 36 10 50 16 90 77 385 79 388 2 1 27 5 57 7 30 3 74 7 99
9 25 3 74 8 110 12 36 4 76 8 90 9 14 2 57 6 95 10 39 4 88 9 110 11 22 2 65
6 95 9 30 3 73 7 95 10 22 3 60 7 85 10 25 2 73 7 108 10 l62 7 -6 -37 c-3
-21 -8 -47 -11 -59 -3 -11 -6 -34 -8 -51 -2 -16 -4 -30 -5 -30 -1 0 -3 -10 -6
-22 -2 -13 -6 -33 -8 -45 -3 -13 -5 -23 -6 -23 -2 0 -5 -23 -11 -77 -2 -16 -7
-28 -12 -28 -4 0 -6 -4 -2 -9 3 -5 0 -31 -6 -58 -14 -62 -16 -73 -23 -114 -3
-19 -7 -43 -10 -54 -6 -32 -45 -237 -50 -268 -3 -15 -7 -35 -10 -45 -3 -9 -7
-33 -10 -52 -5 -34 -21 -118 -33 -170 -3 -14 -6 -34 -7 -45 -1 -11 -5 -33 -9
-50 -4 -16 -9 -43 -12 -60 -3 -16 -10 -55 -16 -85 -6 -30 -12 -68 -15 -85 -2
-16 -7 -38 -10 -47 -6 -19 -14 -59 -19 -93 -1 -11 -10 -60 -20 -110 -9 -49
-19 -98 -21 -108 -2 -10 -5 -26 -8 -35 -3 -9 -7 -35 -11 -56 -3 -21 -7 -48
-10 -60 -3 -12 -7 -33 -10 -48 -14 -78 -24 -123 -32 -155 -2 -7 -5 -21 -7 -30
-3 -10 -5 -18 -6 -18 -1 0 -3 -12 -5 -26 -2 -14 -9 -45 -15 -70 -7 -24 -14
-53 -16 -64 -11 -60 -124 -394 -158 -470 -71 -154 -122 -254 -139 -266 -5 -3
-9 -10 -9 -15 -2 -30 -111 -169 -205 -262 -66 -66 -238 -194 -263 -197 -3 -1
-31 -13 -63 -28 -32 -15 -63 -27 -71 -27 -7 0 -16 -3 -20 -7 -3 -4 -12 -8 -19
-9 -7 -1 -37 -9 -67 -18 -30 -8 -71 -18 -90 -21 -19 -3 -42 -8 -50 -10 -15 -4
-52 -9 -175 -24 -73 -8 -434 -6 -495 3 -19 3 -60 8 -90 11 -30 4 -64 9 -75 12
-23 8 -28 9 -76 17 -69 11 -204 58 -292 102 -223 110 -338 263 -340 449 -2
146 26 219 118 310 60 60 154 114 225 131 19 4 42 9 50 11 63 15 241 20 295 8
17 -3 46 -9 65 -12 19 -2 39 -9 45 -14 5 -5 16 -9 26 -9 34 0 161 -73 210
-121 l51 -49 -31 -35 c-61 -70 -89 -152 -86 -255 4 -115 49 -185 135 -207 36
-9 144 -4 158 7 1 2 5 3 10 4 50 14 122 73 182 151 46 60 132 220 123 229 -4
3 -2 6 4 6 8 0 23 43 22 65 0 3 7 18 15 33 20 36 57 159 95 317 17 72 38 157
47 190 8 33 17 78 20 100 3 21 7 42 10 46 2 4 7 26 10 48 5 35 3 40 -10 35 -9
-3 -16 -10 -16 -14 0 -10 -94 -82 -145 -110 -91 -51 -203 -90 -331 -115 -89
-17 -294 -26 -294 -13 0 5 -8 4 -19 -1 -10 -6 -21 -8 -23 -6 -3 3 -31 8 -64
10 -32 3 -67 8 -76 11 -9 2 -27 7 -40 10 -13 3 -27 6 -33 8 -5 2 -23 6 -40 11
-68 18 -186 88 -245 148 -62 62 -133 185 -145 254 -3 18 -10 44 -15 58 -5 14
-9 29 -9 33 1 4 0 9 -1 12 -17 43 -15 311 4 405 2 11 7 42 10 69 4 27 9 53 12
58 3 5 7 25 10 46 2 20 8 57 14 82 12 58 60 312 65 347 2 16 7 39 10 53 3 14
7 39 10 55 3 17 10 50 15 75 5 25 12 62 15 84 3 21 8 42 10 47 3 4 6 24 7 44
1 19 4 35 8 35 3 0 7 12 7 28 1 15 3 36 6 47 2 11 7 36 11 55 7 38 9 51 27
150 7 36 15 68 18 72 4 4 30 10 59 13 83 8 143 14 207 20 33 3 76 7 95 10 19
2 64 7 100 10 36 3 83 8 105 10 22 3 62 7 88 10 27 3 53 8 59 11 7 5 8 2 3 -6
-5 -9 -4 -11 3 -6 6 4 28 8 49 11 21 2 70 7 108 10 39 4 71 8 72 9 2 2 23 3
48 3 38 1 45 -2 41 -16z m-4611 -698 c-7 -32 -16 -74 -19 -93 -3 -19 -10 -59
-17 -88 -10 -51 -12 -52 -23 -30 -34 65 -54 91 -120 165 -37 41 -38 43 -15 44
13 0 31 2 39 4 8 2 27 7 43 10 20 4 112 37 124 44 1 1 -5 -25 -12 -56z m2977
-1119 c-1 -92 -4 -169 -7 -172 -11 -11 -93 98 -127 168 -9 19 -21 45 -27 57
-10 20 -8 24 29 43 22 11 59 33 82 49 24 16 45 28 47 25 2 -2 3 -79 3 -170z"/>
</g>
</svg>
